# xmcd
#
# Track frame offsets:
#	150
#	16254
#	27881
#	50787
#	68070
#	92410
#	98046
#	124734
#	140944
#	151577
#	173136
#	193323
#	208122
#
# Disc length: 3095 seconds
# Revision: 0
# Processed by: cddbd v1.5.2PL0 Copyright (c) Steve Scherf et al.
# Submitted via: dBpowerAMP V12.0
#
DISCID=b10c150d
DTITLE=The Crooked Jades - Empathy Moves the Water
DYEAR=2018
DGENRE=Bluegrass
TTITLE0=Ryland and Spencer (Rise and Bloom Again)
TTITLE1=Featherbed
TTITLE2=Down to the River
TTITLE3=Yellow Mercury 4
TTITLE4=Going Across the Sea
TTITLE5=The Water Spirit According to Mike
TTITLE6=Empathy Moves the Water
TTITLE7=Mike in the Wilderness
TTITLE8=Long Time Traveling
TTITLE9=Wade in the Water
TTITLE10=Am I Born to Die/Long Time Traveling
TTITLE11=Pretty Little Shoes
TTITLE12=Yellow Mercury 3
EXTD=
EXTT0=
EXTT1=
EXTT2=
EXTT3=
EXTT4=
EXTT5=
EXTT6=
EXTT7=
EXTT8=
EXTT9=
EXTT10=
EXTT11=
EXTT12=
PLAYORDER=
